<?xml version="1.0" standalone="no"?>
<!DOCTYPE svg PUBLIC "-//W3C//DTD SVG 20010904//EN"
 "http://www.w3.org/TR/2001/REC-SVG-20010904/DTD/svg10.dtd">
<svg version="1.0" xmlns="http://www.w3.org/2000/svg"
 width="431.000000pt" height="431.000000pt" viewBox="0 0 431.000000 431.000000"
 preserveAspectRatio="xMidYMid meet">
<metadata>
Created by potrace 1.11, written by Peter Selinger 2001-2013
</metadata>
<g transform="translate(0.000000,431.000000) scale(0.100000,-0.100000)"
fill="#000000" stroke="none">
<path d="M1098 3597 c-39 -40 -48 -57 -48 -84 0 -26 -4 -34 -14 -30 -8 3 -31
9 -50 13 -34 6 -40 3 -86 -42 l-49 -49 -1 -501 0 -501 58 -16 c31 -9 76 -21
99 -27 l42 -11 3 -101 3 -101 389 -104 c214 -57 392 -105 394 -108 2 -2 28 19
58 48 l54 51 0 202 0 202 -42 11 c-24 6 -68 18 -98 26 l-54 15 -53 -52 c-43
-42 -53 -59 -53 -85 0 -18 -3 -33 -7 -33 -5 1 -71 18 -148 39 l-140 38 -3 101
-3 101 -42 12 c-23 6 -68 18 -99 26 l-58 16 0 235 0 234 23 -6 c73 -21 74 -21
127 33 41 41 50 57 50 85 l0 35 113 -30 c61 -17 129 -35 149 -40 l37 -10 3
-101 3 -102 70 -19 c126 -34 119 -35 175 19 l50 49 0 203 c0 111 -2 202 -4
202 -3 0 -47 11 -98 26 -51 14 -102 27 -112 29 -11 3 -69 18 -130 35 -61 16
-186 50 -277 75 -91 25 -170 44 -175 44 -5 -1 -30 -24 -56 -52z"/>
<path d="M2098 3330 l-48 -50 0 -399 0 -400 43 -11 c23 -6 68 -18 99 -27 l58
-16 2 -200 3 -201 95 -25 95 -26 3 -101 3 -101 193 -51 c106 -29 196 -52 198
-52 3 0 29 22 57 50 42 41 51 55 51 85 0 19 1 35 3 35 1 0 23 -7 48 -14 l46
-14 52 52 51 52 0 132 c0 144 -2 140 60 122 33 -10 36 -8 87 42 l53 52 0 401
0 400 -100 24 -100 25 -50 -50 -50 -49 0 -237 0 -236 -47 14 -47 14 -53 -52
-53 -52 0 -133 c0 -73 -3 -133 -7 -133 -5 0 -71 17 -148 38 l-140 37 -3 201
-2 201 -58 16 c-31 8 -76 20 -99 27 l-43 11 0 299 c0 276 -1 299 -17 304 -62
18 -169 46 -178 45 -5 0 -31 -22 -57 -49z"/>
</g>
</svg>
